<svg width="33" height="24" viewBox="0 0 33 24" fill="none" xmlns="http://www.w3.org/2000/svg">
    <g clip-path="url(#clip0_24925_36027)">
        <path
            d="M26.231 0.00244141C23.5568 0.00244141 21.2451 1.57421 20.1455 3.85576C20.1428 3.82573 20.1398 3.79549 20.1363 3.7649C19.9573 2.1866 18.6727 0.22457 16.3981 0.22457H10.4182V13.6538H16.2667C18.3782 13.6538 20.0123 11.7667 20.1318 10.1523C20.139 10.0539 20.1429 9.95802 20.1433 9.86462C21.2421 12.1486 23.5551 13.7224 26.231 13.7224C29.9695 13.7224 33.0001 10.6511 33.0001 6.8624C33.0001 3.07374 29.9695 0.00244141 26.231 0.00244141ZM15.5384 10.5635H13.8329V8.25998H15.5384C16.3143 8.25998 16.6519 8.90637 16.6519 9.41173C16.6519 10.0187 16.2039 10.5635 15.5384 10.5635ZM15.5384 5.50452H13.8329V3.20102H15.5384C16.2039 3.20102 16.6519 3.74577 16.6519 4.35277C16.6519 4.85812 16.3143 5.50452 15.5384 5.50452ZM18.1683 6.85339C18.4983 6.75058 19.0706 6.49183 19.5175 5.98085C19.437 6.61788 19.4441 7.26306 19.5388 7.89811C19.0951 7.29134 18.5122 6.96331 18.1683 6.85339ZM26.2381 10.2602C25.5683 10.2602 24.9135 10.06 24.3566 9.68483C23.7997 9.30966 23.3656 8.77643 23.1093 8.15255C22.853 7.52867 22.7859 6.84217 22.9166 6.17987C23.0473 5.51756 23.3698 4.90919 23.8434 4.4317C24.317 3.9542 24.9205 3.62903 25.5774 3.49728C26.2343 3.36554 26.9153 3.43316 27.5341 3.69158C28.1529 3.95 28.6818 4.38761 29.0539 4.94909C29.426 5.51056 29.6247 6.17068 29.6247 6.84596C29.6247 7.75148 29.2679 8.61992 28.6328 9.26022C27.9977 9.90052 27.1363 10.2602 26.2381 10.2602Z"
            fill="white" fill-opacity="0.9" />
        <path
            d="M28.1216 8.74514C29.1618 7.69638 29.1618 5.996 28.1216 4.94725C27.0813 3.89849 25.3947 3.89849 24.3545 4.94725C23.3142 5.99601 23.3142 7.69638 24.3545 8.74514C25.3947 9.79389 27.0813 9.79389 28.1216 8.74514Z"
            fill="white" fill-opacity="0.9" />
        <path
            d="M6.0031 0.224609V5.24502H3.70215V0.224609H0.000244141V13.6539H3.70215V8.45931H6.0031V13.6539H9.70501V0.224609H6.0031Z"
            fill="white" fill-opacity="0.9" />
        <path
            d="M22.4466 15.4814C22.4466 15.4814 23.7521 17.567 25.8486 19.5681C25.1645 20.2266 23.5801 21.8429 22.2603 23.8743H24.6694C25.6253 22.3692 26.5448 21.3752 27.0706 20.8643C27.5964 21.3752 28.5159 22.3692 29.4718 23.8743H31.8809C30.5611 21.8429 28.9767 20.2266 28.2925 19.5681C30.3891 17.567 31.6946 15.4814 31.6946 15.4814H29.2854C29.2854 15.4814 28.7088 16.552 27.0706 18.331C25.4324 16.552 24.8557 15.4814 24.8557 15.4814H22.4466Z"
            fill="white" fill-opacity="0.9" />
        <path
            d="M7.09981 23.874V18.2595C10.3614 15.4061 10.254 18.3819 10.254 18.3819V23.874H12.1843V18.0268C12.1843 18.0268 12.1843 15.2676 9.94732 15.2676C9.18779 15.2676 8.73873 15.4413 8.16035 15.7564C8.16035 15.7564 7.51184 16.1081 6.82916 16.7754C6.70415 16.2344 6.25202 15.2676 4.61703 15.2676C3.55749 15.2676 2.51275 16.0691 1.9754 16.5565V15.4811H0.045166V23.874H1.9754V18.2946C5.27782 15.3819 5.16954 18.3819 5.16954 18.3819V23.874H7.09981Z"
            fill="white" fill-opacity="0.9" />
        <path
            d="M19.7821 15.4812V16.4972C19.1585 15.7211 18.2322 15.2402 17.0006 15.2402C14.7259 15.2402 12.8818 17.2006 12.8818 19.6188C12.8818 22.0371 14.7259 23.9974 17.0006 23.9974C18.2322 23.9974 19.1585 23.504 19.7821 22.7278V23.8741H21.7141V15.4812H19.7821ZM17.2589 22.1275C16.76 22.1275 16.2724 21.9783 15.8576 21.6989C15.4428 21.4195 15.1195 21.0223 14.9286 20.5577C14.7377 20.093 14.6878 19.5817 14.7851 19.0885C14.8824 18.5952 15.1226 18.1421 15.4754 17.7865C15.8281 17.4308 16.2775 17.1886 16.7668 17.0905C17.2561 16.9924 17.7632 17.0428 18.2241 17.2352C18.685 17.4277 19.0789 17.7536 19.3561 18.1718C19.6332 18.59 19.7811 19.0816 19.7811 19.5846C19.7811 20.259 19.5154 20.9058 19.0424 21.3827C18.5694 21.8596 17.9278 22.1275 17.2589 22.1275Z"
            fill="white" fill-opacity="0.9" />
    </g>
    <defs>
        <clipPath id="clip0_24925_36027">
            <rect width="33" height="24" fill="white" />
        </clipPath>
    </defs>
</svg>